<svg xmlns="http://www.w3.org/2000/svg" viewBox="0 0 32 32">
  <path d="M17 5C16.216093 5 15.503747 5.3142709 14.966797 5.8144531C14.560381 5.441571 14.069131 5.186351 13.542969 5.078125C12.788627 4.9229651 11.976132 5.0532724 11.289062 5.5058594L4.3535156 9.9960938L4.3496094 9.9980469C2.9766959 10.903401 2.5899698 12.778957 3.4941406 14.152344L11.716797 26.636719C12.621155 28.011879 14.498909 28.397361 15.873047 27.492188L18.121094 26.011719L18.113281 26L26 26C27.64497 26 29 24.64497 29 23L29 8C29 6.3550302 27.64497 5 26 5L17 5 z M 17 7L26 7C26.56503 7 27 7.4349698 27 8L27 23C27 23.56503 26.56503 24 26 24L17 24C16.43497 24 16 23.56503 16 23L16 8C16 7.4349698 16.43497 7 17 7 z M 12.761719 7.0234375C13.145517 6.9495748 13.543159 7.1078079 13.775391 7.4609375L13.787109 7.4785156L14.019531 7.8007812C14.014965 7.8677902 14 7.9319224 14 8L14 23C14 24.019196 14.521575 24.92549 15.308594 25.46875L14.773438 25.822266C14.301574 26.133092 13.696361 26.009902 13.386719 25.539062L5.1660156 13.052734C4.8561864 12.582121 4.9800892 11.978618 5.4511719 11.667969L12.386719 7.1777344L12.388672 7.1757812C12.506637 7.0980748 12.633786 7.0480584 12.761719 7.0234375 z" fill="#4169e1" />
</svg>