<svg xmlns="http://www.w3.org/2000/svg" viewBox="0 0 32 32">
  <path d="M16 5.9375L15.65625 6.0625L2.65625 10.96875L2 11.21875L2 12.78125L2.65625 13.03125L15.65625 17.9375L16 18.0625L16.34375 17.9375L29.34375 13.03125L30 12.78125L30 11.21875L29.34375 10.96875L16.34375 6.0625 Z M 16 8.0625L26.40625 12L16 15.9375L5.59375 12 Z M 2 13.90625L2 16.78125L16 22.0625L30 16.78125L30 13.90625L28 14.65625L28 15.40625L16 19.9375L4 15.40625L4 14.65625 Z M 2 17.90625L2 20.78125L16 26.0625L30 20.78125L30 17.90625L28 18.65625L28 19.40625L16 23.9375L4 19.40625L4 18.65625Z" fill="#4169E1" />
</svg>