<svg xmlns="http://www.w3.org/2000/svg" viewBox="0 0 32 32">
  <path d="M16 2.59375L15.3125 3.28125L12.6875 5.8125L9.09375 5.3125L8.125 5.15625L7.96875 6.125L7.34375 9.71875L4.125 11.40625L3.28125 11.875L3.6875 12.71875L5.28125 16L3.6875 19.28125L3.28125 20.125L4.125 20.59375L7.34375 22.28125L7.96875 25.875L8.125 26.84375L9.09375 26.6875L12.6875 26.1875L15.3125 28.71875L16 29.40625L16.6875 28.71875L19.3125 26.1875L22.90625 26.6875L23.875 26.84375L24.03125 25.875L24.65625 22.3125L27.875 20.59375L28.75 20.125L28.3125 19.28125L26.71875 16L28.3125 12.71875L28.75 11.875L27.875 11.40625L24.65625 9.6875L24.03125 6.125L23.875 5.15625L22.90625 5.3125L19.3125 5.8125L16.6875 3.28125 Z M 16 5.375L18.28125 7.59375L18.625 7.9375L19.125 7.875L22.21875 7.40625L22.78125 10.53125L22.875 11L23.3125 11.25L26.09375 12.75L24.71875 15.5625L24.5 16L24.71875 16.4375L26.09375 19.25L23.3125 20.75L22.875 21L22.78125 21.46875L22.21875 24.59375L19.125 24.125L18.625 24.0625L18.28125 24.40625L16 26.625L13.71875 24.40625L13.375 24.0625L12.90625 24.125L9.78125 24.59375L9.21875 21.46875L9.125 21L8.71875 20.75L5.9375 19.28125L7.3125 16.4375L7.53125 16L7.3125 15.5625L5.9375 12.71875L8.71875 11.25L9.125 11L9.21875 10.53125L9.78125 7.40625L12.90625 7.875L13.375 7.9375L13.71875 7.59375 Z M 10 14L10 18L11 18L11 16.34375L12 17.1875L12 18L13 18L13 14L12 14L12 15.65625L11 14.8125L11 14 Z M 14 14L14 18L17 18L17 17L15 17L15 16.5L16.78125 16.5L16.78125 15.5L15 15.5L15 15L17 15L17 14 Z M 18 14L18 14.5L19.15625 17.6875L19.3125 18L20.03125 18L20.5 16.65625L20.875 17.65625L21.03125 18L21.71875 18L22.96875 14.6875L23 14L22 14L22 14.40625L21.375 16.125L21 15.09375L20.8125 14.75L20.125 14.75L19.625 16.125L19 14.40625L19 14Z" fill="#4169E1" />
</svg>