<svg xmlns="http://www.w3.org/2000/svg" viewBox="0 0 32 32">
  <path d="M3 6L3 26L29 26L29 6 Z M 5 8L8.25 8L9.59375 10L8.25 12L5 12 Z M 10.65625 8L13.0625 8L14.40625 10L13.0625 12L10.65625 12L11.625 10.5625L12 10L11.625 9.4375 Z M 15.46875 8L17.84375 8L19.1875 10L17.84375 12L15.46875 12L16.4375 10.5625L16.8125 10L16.4375 9.4375 Z M 20.25 8L22.65625 8L24 10L22.65625 12L20.25 12L21.21875 10.5625L21.59375 10L21.21875 9.4375 Z M 25.0625 8L27 8L27 12L25.0625 12L26.03125 10.5625L26.40625 10L26.03125 9.4375 Z M 7 9C6.449219 9 6 9.449219 6 10C6 10.550781 6.449219 11 7 11C7.550781 11 8 10.550781 8 10C8 9.449219 7.550781 9 7 9 Z M 5 14L27 14L27 24L5 24Z" fill="#4169E1" />
</svg>